<?xml version="1.0" encoding="utf-8"?>
<!-- Generator: Adobe Illustrator 24.3.0, SVG Export Plug-In . SVG Version: 6.00 Build 0)  -->
<svg version="1.1" id="Layer_1" xmlns="http://www.w3.org/2000/svg" xmlns:xlink="http://www.w3.org/1999/xlink" x="0px" y="0px"
	 viewBox="0 0 236.1 236" style="enable-background:new 0 0 236.1 236;" xml:space="preserve">
<style type="text/css">
	.st0{fill:#A81B21;}
	.st1{fill:#F2F2F2;}
</style>
<g>
	<path class="st0" d="M-237.2,118c0,9.7-1.4,19.3-4.2,28.5l19,6.2c3.5-11.3,5.2-22.9,5.2-34.7c0-12.1-1.8-24-5.4-35.5l-19,6.2
		C-238.7,98.2-237.2,108.1-237.2,118z"/>
	<path class="st0" d="M-336.9,20V0c-24,0.3-46.9,7.7-66.4,21.6l11.8,16.2C-375.4,26.4-356.6,20.3-336.9,20z"/>
	<path class="st0" d="M-433.3,118c0-9.9,1.5-19.7,4.4-29.2l-19-6.2c-3.6,11.5-5.4,23.4-5.4,35.4c0,11.8,1.8,23.4,5.2,34.7l19-6.2
		C-431.9,137.3-433.3,127.7-433.3,118z"/>
	<path class="st0" d="M-428.2,149.4l-19,6.2c7.7,22.8,21.9,42.5,41.1,56.9l11.8-16.2C-410.1,184.3-421.8,168.2-428.2,149.4z"/>
	<path class="st0" d="M-333.8,216v20c24.2-0.2,47.2-7.8,66.9-21.8l-11.8-16.2C-294.9,209.6-313.9,215.8-333.8,216z"/>
	<path class="st0" d="M-391.9,198l-11.8,16.2c19.7,14,42.7,21.5,66.8,21.8v-20C-356.7,215.8-375.7,209.6-391.9,198z"/>
	<path class="st1" d="M-279.1,37.6l11.8-16.2C-286.9,7.6-309.9,0.2-333.9,0v20C-314.1,20.2-295.3,26.3-279.1,37.6z"/>
	<path class="st0" d="M-394,39.5l-11.8-16.2c-19.2,14.3-33.4,33.8-41.2,56.5l19,6.2C-421.5,67.3-409.8,51.3-394,39.5z"/>
	<path class="st0" d="M-242.6,85.9l19-6.2c-7.8-22.7-22-42.2-41.3-56.5l-11.8,16.2C-260.8,51.2-249.1,67.2-242.6,85.9z"/>
	<path class="st0" d="M-276.3,196.3l11.8,16.2c19.3-14.4,33.5-34.1,41.2-56.9l-19-6.2C-248.7,168.2-260.4,184.4-276.3,196.3z"/>
</g>
<g>
	<path class="st0" d="M216.1,118c0,9.3-1.3,18.6-3.9,27.6l19,6.2c3.3-11,4.9-22.3,4.9-33.7c0-11.7-1.7-23.3-5.2-34.5l-19,6.2
		C214.7,98.9,216.1,108.4,216.1,118z"/>
	<path class="st0" d="M115.4,20V0C92.2,0.5,69.9,7.7,50.8,21l11.8,16.2C78.3,26.4,96.4,20.5,115.4,20z"/>
	<path class="st0" d="M20,118c0-9.6,1.4-19.1,4.2-28.2l-19-6.2C1.7,94.8,0,106.3,0,118c0,11.4,1.7,22.8,4.9,33.7l19-6.2
		C21.3,136.6,20,127.4,20,118z"/>
	<path class="st0" d="M25.5,150.3l-19,6.2c7.6,22.1,21.4,41.2,40,55.3l11.8-16.2C43,184,31.8,168.4,25.5,150.3z"/>
	<path class="st0" d="M120.5,216v20c23.5-0.4,45.8-7.7,65.1-21.2l-11.8-16.2C158,209.6,139.7,215.6,120.5,216z"/>
	<path class="st0" d="M62.2,198.6l-11.8,16.2c19.2,13.5,41.6,20.8,65,21.2v-20C96.3,215.6,78,209.6,62.2,198.6z"/>
	<path class="st1" d="M173.4,37.1l11.8-16.2C166,7.6,143.7,0.4,120.4,0v20C139.5,20.4,157.7,26.3,173.4,37.1z"/>
	<path class="st0" d="M58.5,40.1L46.8,23.9C28.2,38,14.4,56.9,6.7,78.8l19,6.2C32.1,67.1,43.4,51.7,58.5,40.1z"/>
	<path class="st0" d="M210.4,84.9l19-6.2c-7.8-22-21.6-40.9-40.2-54.9L177.4,40C192.6,51.5,203.9,67,210.4,84.9z"/>
	<path class="st0" d="M229.7,156.5l-19-6.2c-6.3,18.1-17.6,33.7-32.8,45.4l11.8,16.2C208.2,197.7,222,178.7,229.7,156.5z"/>
</g>
</svg>
