<?xml version="1.0" encoding="utf-8"?>
<!-- Generator: Adobe Illustrator 24.3.0, SVG Export Plug-In . SVG Version: 6.00 Build 0)  -->
<svg version="1.1" id="레이어_1" xmlns="http://www.w3.org/2000/svg" xmlns:xlink="http://www.w3.org/1999/xlink" x="0px"
	 y="0px" viewBox="0 0 643.1 285.1" style="enable-background:new 0 0 643.1 285.1;" xml:space="preserve">
<style type="text/css">
	.st0{fill:#3B5AC3;}
	.st1{fill:#4E4E4E;}
</style>
<g>
	<path class="st0" d="M428.5,191.6c21.5-12.4,28.9-39.9,16.5-61.5c-12.4-21.5-39.9-28.9-61.5-16.5c-21.5,12.4-28.9,39.9-16.5,61.5
		C379.5,196.7,407,204.1,428.5,191.6z M429.2,122.9c1.9-1.1,4.4-0.4,5.5,1.5c1.1,1.9,0.4,4.4-1.5,5.5c-1.9,1.1-4.4,0.4-5.5-1.5
		C426.6,126.4,427.3,124,429.2,122.9z M415.4,115.2c1.9-1.1,4.4-0.4,5.5,1.5c1.1,1.9,0.4,4.4-1.5,5.5c-1.9,1.1-4.4,0.4-5.5-1.5
		C412.8,118.7,413.5,116.3,415.4,115.2z M399.5,113.7c1.9-1.1,4.4-0.4,5.5,1.5c1.1,1.9,0.4,4.4-1.5,5.5c-1.9,1.1-4.4,0.4-5.5-1.5
		C397,117.2,397.6,114.8,399.5,113.7z M390,157c8.6-5,19.6-2,24.6,6.6s2,19.6-6.6,24.6c-8.6,5-19.6,2-24.6-6.6
		C378.5,173,381.4,162,390,157z"/>
	<path class="st0" d="M204.5,168.7c-21.5-12.4-49-5.1-61.5,16.5c-12.4,21.5-5.1,49,16.5,61.5c21.5,12.4,49,5.1,61.5-16.5
		C233.4,208.6,226,181.1,204.5,168.7z M176.8,220.6c-5,8.6-16,11.6-24.6,6.6c-8.6-5-11.6-16-6.6-24.6c5-8.6,16-11.6,24.6-6.6
		C178.9,201,181.8,212,176.8,220.6z M208.5,189.5c-1.9-1.1-2.6-3.6-1.5-5.5c1.1-1.9,3.6-2.6,5.5-1.5c1.9,1.1,2.6,3.6,1.5,5.5
		C212.9,189.9,210.5,190.6,208.5,189.5z M213.7,198.5c1.1-1.9,3.6-2.6,5.5-1.5c1.9,1.1,2.6,3.6,1.5,5.5c-1.1,1.9-3.6,2.6-5.5,1.5
		C213.2,202.9,212.6,200.4,213.7,198.5z M220.9,218.3c-1.1,1.9-3.6,2.6-5.5,1.5c-1.9-1.1-2.6-3.6-1.5-5.5c1.1-1.9,3.6-2.6,5.5-1.5
		C221.3,214,222,216.4,220.9,218.3z"/>
	<path class="st0" d="M515,76.2c-12.4,21.5-5.1,49,16.5,61.5c21.5,12.4,49,5.1,61.5-16.5c12.4-21.5,5.1-49-16.5-61.5
		C555,47.3,527.5,54.6,515,76.2z M592.9,109.3c-1.1,1.9-3.6,2.6-5.5,1.5c-1.9-1.1-2.6-3.6-1.5-5.5c1.1-1.9,3.6-2.6,5.5-1.5
		C593.3,105,594,107.4,592.9,109.3z M591.2,88.1c1.9,1.1,2.6,3.6,1.5,5.5c-1.1,1.9-3.6,2.6-5.5,1.5c-1.9-1.1-2.6-3.6-1.5-5.5
		C586.8,87.6,589.2,87,591.2,88.1z M579.1,75c1.1-1.9,3.6-2.6,5.5-1.5c1.9,1.1,2.6,3.6,1.5,5.5c-1.1,1.9-3.6,2.6-5.5,1.5
		C578.6,79.4,578,76.9,579.1,75z M542.3,87c8.6,5,11.6,16,6.6,24.6s-16,11.6-24.6,6.6c-8.6-5-11.6-16-6.6-24.6
		C522.6,85,533.6,82,542.3,87z"/>
	<path class="st0" d="M265.4,86c-24.1-6-48.5,8.7-54.5,32.8c-6,24.1,8.7,48.5,32.8,54.5c24.1,6,48.5-8.7,54.5-32.8
		C304.2,116.5,289.5,92,265.4,86z M259.8,167.1c-0.5,2.1-2.7,3.4-4.8,2.9s-3.4-2.7-2.9-4.8s2.7-3.4,4.8-2.9
		C259.1,162.7,260.4,164.9,259.8,167.1z M262.5,115.2c-2.4,9.6-12.2,15.5-21.8,13.1c-9.6-2.4-15.5-12.2-13.1-21.8
		c2.4-9.6,12.2-15.5,21.8-13.1C259,95.8,264.9,105.5,262.5,115.2z M274.9,162.5c-0.5,2.1-2.7,3.4-4.8,2.9s-3.4-2.7-2.9-4.8
		c0.5-2.1,2.7-3.4,4.8-2.9C274.2,158.1,275.5,160.3,274.9,162.5z M287.1,152.1c-0.5,2.1-2.7,3.4-4.8,2.9s-3.4-2.7-2.9-4.8
		c0.5-2.1,2.7-3.4,4.8-2.9C286.3,147.8,287.6,150,287.1,152.1z"/>
	<path class="st0" d="M586.8,161.3c-24.5-4.3-47.8,12-52.2,36.5c-4.3,24.5,12,47.8,36.5,52.2c24.5,4.3,47.8-12,52.2-36.5
		C627.6,189,611.3,165.6,586.8,161.3z M550.2,190.2c-0.4,2.2-2.5,3.6-4.6,3.2c-2.2-0.4-3.6-2.5-3.2-4.6c0.4-2.2,2.5-3.6,4.6-3.2
		S550.6,188.1,550.2,190.2z M560.6,178.3c-0.4,2.2-2.5,3.6-4.6,3.2c-2.2-0.4-3.6-2.5-3.2-4.6c0.4-2.2,2.5-3.6,4.6-3.2
		S561,176.1,560.6,178.3z M570.3,174.7c-2.2-0.4-3.6-2.5-3.2-4.6s2.5-3.6,4.6-3.2s3.6,2.5,3.2,4.6
		C574.6,173.6,572.5,175.1,570.3,174.7z M610.1,225.1c-1.7,9.8-11.1,16.3-20.9,14.6c-9.8-1.7-16.3-11.1-14.6-20.9
		c1.7-9.8,11.1-16.3,20.9-14.6C605.3,206,611.8,215.3,610.1,225.1z"/>
	<path class="st0" d="M101.3,105.6c19.3-15.6,22.3-44,6.7-63.3c-15.6-19.3-44-22.3-63.3-6.7C25.4,51.3,22.4,79.7,38,99
		C53.7,118.3,82,121.3,101.3,105.6z M69.6,109.1c-1.7,1.4-4.2,1.1-5.6-0.6c-1.4-1.7-1.1-4.2,0.6-5.6c1.7-1.4,4.2-1.1,5.6,0.6
		C71.5,105.2,71.3,107.7,69.6,109.1z M85.5,108.2c-1.7,1.4-4.2,1.1-5.6-0.6c-1.4-1.7-1.1-4.2,0.6-5.6c1.7-1.4,4.2-1.1,5.6,0.6
		C87.5,104.3,87.2,106.8,85.5,108.2z M65.4,35.9c7.7-6.3,19.1-5.1,25.3,2.7c6.3,7.7,5.1,19.1-2.7,25.3c-7.7,6.3-19.1,5.1-25.3-2.7
		C56.5,53.5,57.7,42.2,65.4,35.9z M49.7,97.5c1.7-1.4,4.2-1.1,5.6,0.6c1.4,1.7,1.1,4.2-0.6,5.6c-1.7,1.4-4.2,1.1-5.6-0.6
		C47.7,101.4,48,98.9,49.7,97.5z"/>
	<path class="st0" d="M170,143.7c19.9,0,36-16.1,36-36c0-19.9-16.1-36-36-36s-36,16.1-36,36C134,127.5,150.1,143.7,170,143.7z
		 M180.8,79.7c7.7,0,14,6.3,14,14c0,7.7-6.3,14-14,14s-14-6.3-14-14C166.8,85.9,173,79.7,180.8,79.7z M160.3,131.7c1.7,0,3,1.3,3,3
		c0,1.7-1.3,3-3,3s-3-1.3-3-3C157.3,133,158.6,131.7,160.3,131.7z M150.5,124.6c1.7,0,3,1.3,3,3c0,1.7-1.3,3-3,3s-3-1.3-3-3
		C147.5,126,148.8,124.6,150.5,124.6z M141,117.3c0-1.7,1.3-3,3-3s3,1.3,3,3s-1.3,3-3,3S141,118.9,141,117.3z"/>
	<path class="st0" d="M371,92.7c19.9,0,36-16.1,36-36c0-19.9-16.1-36-36-36s-36,16.1-36,36C335,76.5,351.1,92.7,371,92.7z M397,63.3
		c1.7,0,3,1.3,3,3s-1.3,3-3,3s-3-1.3-3-3S395.3,63.3,397,63.3z M390.5,73.6c1.7,0,3,1.3,3,3c0,1.7-1.3,3-3,3s-3-1.3-3-3
		C387.5,75,388.9,73.6,390.5,73.6z M380.7,80.7c1.7,0,3,1.3,3,3c0,1.7-1.3,3-3,3s-3-1.3-3-3C377.7,82,379.1,80.7,380.7,80.7z
		 M360.2,28.7c7.7,0,14,6.3,14,14c0,7.7-6.3,14-14,14s-14-6.3-14-14C346.2,34.9,352.5,28.7,360.2,28.7z"/>
	<path class="st0" d="M271,180.7c-15.5,0-28,12.5-28,28c0,15.5,12.5,28,28,28s28-12.5,28-28C299,193.2,286.5,180.7,271,180.7z
		 M251.2,201.5c-1.2,0-2.2-1-2.2-2.2s1-2.2,2.2-2.2s2.2,1,2.2,2.2S252.4,201.5,251.2,201.5z M255.8,194.8c-1.2,0-2.2-1-2.2-2.2
		s1-2.2,2.2-2.2s2.2,1,2.2,2.2S257,194.8,255.8,194.8z M263,190.1c-1.2,0-2.2-1-2.2-2.2s1-2.2,2.2-2.2s2.2,1,2.2,2.2
		S264.3,190.1,263,190.1z M277.8,229.7c-6.6,0-12-5.4-12-12c0-6.6,5.4-12,12-12s12,5.4,12,12C289.8,224.3,284.4,229.7,277.8,229.7z"
		/>
	<path class="st0" d="M313,224.2c-11.8,9.9-13.4,27.6-3.5,39.4c9.9,11.8,27.6,13.4,39.4,3.5c11.8-9.9,13.4-27.6,3.5-39.4
		S324.8,214.3,313,224.2z M332.1,222c0.9-0.8,2.3-0.7,3.1,0.3c0.8,0.9,0.7,2.3-0.3,3.1s-2.3,0.7-3.1-0.3S331.2,222.8,332.1,222z
		 M324,222.8c0.9-0.8,2.3-0.7,3.1,0.3c0.8,0.9,0.7,2.3-0.3,3.1s-2.3,0.7-3.1-0.3S323.1,223.6,324,222.8z M336.2,265.8
		c-5.1,4.3-12.6,3.6-16.9-1.5s-3.6-12.6,1.5-16.9c5.1-4.3,12.6-3.6,16.9,1.5S341.2,261.6,336.2,265.8z M343.2,227.9
		c-0.9,0.8-2.3,0.7-3.1-0.3s-0.7-2.3,0.3-3.1c0.9-0.8,2.3-0.7,3.1,0.3C344.3,225.7,344.2,227.1,343.2,227.9z"/>
	<path class="st0" d="M32.1,201.8c-15.4,1.6-26.5,15.4-24.9,30.8s15.4,26.5,30.8,24.9s26.5-15.4,24.9-30.8S47.4,200.2,32.1,201.8z
		 M28,249.3c-6.6,0.7-12.5-4.1-13.2-10.7s4.1-12.5,10.7-13.2c6.6-0.7,12.5,4.1,13.2,10.7C39.4,242.7,34.6,248.6,28,249.3z
		 M42.4,211.2c-1.2,0.1-2.3-0.7-2.4-2c-0.1-1.2,0.7-2.3,2-2.4c1.2-0.1,2.3,0.7,2.4,2C44.5,210,43.6,211,42.4,211.2z M49.6,215.1
		c-1.2,0.1-2.3-0.7-2.4-2c-0.1-1.2,0.7-2.3,2-2.4c1.2-0.1,2.3,0.7,2.4,2C51.7,213.9,50.8,214.9,49.6,215.1z M55.1,221.8
		c-1.2,0.1-2.3-0.7-2.4-2c-0.1-1.2,0.7-2.3,2-2.4c1.2-0.1,2.3,0.7,2.4,2C57.2,220.6,56.3,221.6,55.1,221.8z"/>
	<path class="st0" d="M28,178.7c15.5,0,28-12.5,28-28c0-15.5-12.5-28-28-28s-28,12.5-28,28C0,166.1,12.5,178.7,28,178.7z
		 M34.8,147.7c6.6,0,12,5.4,12,12c0,6.6-5.4,12-12,12s-12-5.4-12-12C22.8,153,28.1,147.7,34.8,147.7z M20,127.7c1.2,0,2.2,1,2.2,2.2
		s-1,2.2-2.2,2.2s-2.2-1-2.2-2.2S18.8,127.7,20,127.7z M12.8,132.4c1.2,0,2.2,1,2.2,2.2s-1,2.2-2.2,2.2s-2.2-1-2.2-2.2
		S11.6,132.4,12.8,132.4z M6,141.3c0-1.2,1-2.2,2.2-2.2s2.2,1,2.2,2.2s-1,2.2-2.2,2.2S6,142.5,6,141.3z"/>
	<path class="st0" d="M289,85.7c15.5,0,28-12.5,28-28c0-15.5-12.5-28-28-28s-28,12.5-28,28C261,73.1,273.5,85.7,289,85.7z
		 M309.8,47.5c1.2,0,2.2,1,2.2,2.2s-1,2.2-2.2,2.2s-2.2-1-2.2-2.2S308.6,47.5,309.8,47.5z M305,40.3c1.2,0,2.2,1,2.2,2.2
		s-1,2.2-2.2,2.2s-2.2-1-2.2-2.2S303.8,40.3,305,40.3z M298.3,35.7c1.2,0,2.2,1,2.2,2.2s-1,2.2-2.2,2.2s-2.2-1-2.2-2.2
		S297.1,35.7,298.3,35.7z M280,52.4c6.6,0,12,5.4,12,12c0,6.6-5.4,12-12,12s-12-5.4-12-12C268,57.8,273.4,52.4,280,52.4z"/>
	<path class="st0" d="M401,205.7c-15.5,0-28,12.5-28,28c0,15.5,12.5,28,28,28s28-12.5,28-28C429,218.2,416.5,205.7,401,205.7z
		 M380.2,243.8c-1.2,0-2.2-1-2.2-2.2s1-2.2,2.2-2.2s2.2,1,2.2,2.2S381.4,243.8,380.2,243.8z M385,251c-1.2,0-2.2-1-2.2-2.2
		s1-2.2,2.2-2.2s2.2,1,2.2,2.2S386.2,251,385,251z M391.7,255.7c-1.2,0-2.2-1-2.2-2.2s1-2.2,2.2-2.2s2.2,1,2.2,2.2
		S392.9,255.7,391.7,255.7z M410,238.9c-6.6,0-12-5.4-12-12c0-6.6,5.4-12,12-12s12,5.4,12,12C422,233.5,416.6,238.9,410,238.9z"/>
	<path class="st0" d="M518,190.7c0-15.5-12.5-28-28-28s-28,12.5-28,28c0,15.5,12.5,28,28,28S518,206.1,518,190.7z M469.2,184.9
		c-1.2,0-2.2-1-2.2-2.2s1-2.2,2.2-2.2s2.2,1,2.2,2.2S470.4,184.9,469.2,184.9z M474,177.7c-1.2,0-2.2-1-2.2-2.2s1-2.2,2.2-2.2
		s2.2,1,2.2,2.2S475.2,177.7,474,177.7z M480.7,173.1c-1.2,0-2.2-1-2.2-2.2s1-2.2,2.2-2.2s2.2,1,2.2,2.2S481.9,173.1,480.7,173.1z
		 M499,185.4c6.6,0,12,5.4,12,12c0,6.6-5.4,12-12,12s-12-5.4-12-12C487,190.8,492.4,185.4,499,185.4z"/>
	<path class="st0" d="M454.7,39.8c8.1,5.7,19.4,3.7,25.1-4.4c5.7-8.1,3.7-19.4-4.4-25.1s-19.4-3.7-25.1,4.4
		C444.6,22.9,446.6,34.1,454.7,39.8z M467.8,20.4c2.2-3.2,6.6-3.9,9.8-1.7c3.2,2.2,3.9,6.6,1.7,9.8s-6.6,3.9-9.8,1.7
		C466.4,27.9,465.6,23.6,467.8,20.4z M456.1,32.3c0.7,0.5,0.8,1.5,0.3,2.2s-1.5,0.9-2.2,0.5c-0.7-0.5-0.8-1.5-0.3-2.2
		S455.5,31.9,456.1,32.3z M451.2,18.9c0.5-0.7,1.4-0.8,2.1-0.4c0.7,0.5,0.8,1.4,0.4,2.1c-0.5,0.7-1.4,0.8-2.1,0.4
		C450.9,20.6,450.7,19.6,451.2,18.9z M451.1,25.9c0.5-0.7,1.5-0.9,2.2-0.5c0.7,0.5,0.8,1.5,0.3,2.2s-1.5,0.9-2.2,0.5
		C450.8,27.6,450.6,26.7,451.1,25.9z"/>
	<path class="st0" d="M512.6,63c9.9-0.9,17.2-9.6,16.4-19.5c-0.9-9.9-9.6-17.2-19.5-16.4c-9.9,0.9-17.2,9.6-16.4,19.5
		S502.7,63.9,512.6,63z M524.5,45.3c0.8-0.1,1.6,0.5,1.6,1.4c0.1,0.8-0.5,1.6-1.4,1.6c-0.8,0.1-1.6-0.5-1.6-1.4
		C523.1,46.1,523.7,45.4,524.5,45.3z M521.1,51.3c0.8-0.1,1.6,0.6,1.6,1.5c0.1,0.9-0.5,1.7-1.4,1.7c-0.8,0.1-1.6-0.6-1.6-1.5
		S520.2,51.4,521.1,51.3z M515.2,55.8c0.8-0.1,1.6,0.6,1.6,1.5c0.1,0.9-0.5,1.7-1.4,1.7c-0.8,0.1-1.6-0.6-1.6-1.5
		S514.4,55.9,515.2,55.8z M503.4,33.3c3.9-0.3,7.2,2.5,7.6,6.4c0.3,3.9-2.5,7.2-6.4,7.6c-3.9,0.3-7.2-2.5-7.6-6.4
		C496.7,37,499.6,33.6,503.4,33.3z"/>
	<path class="st0" d="M632.8,129.7c-5.7-8.1-16.9-10.1-25.1-4.4c-8.1,5.7-10.1,16.9-4.4,25.1c5.7,8.1,16.9,10.1,25.1,4.4
		S638.5,137.9,632.8,129.7z M613.6,145.2c-3.2,2.2-7.5,1.5-9.8-1.7c-2.2-3.2-1.5-7.5,1.7-9.8c3.2-2.2,7.5-1.5,9.8,1.7
		S616.8,143,613.6,145.2z M629.9,133.6c0.7-0.5,1.6-0.3,2.1,0.4c0.5,0.7,0.3,1.6-0.4,2.1c-0.7,0.5-1.6,0.3-2.1-0.4
		C629,135,629.2,134,629.9,133.6z M628.9,150c-0.7,0.5-1.6,0.3-2.2-0.5s-0.4-1.7,0.3-2.2s1.6-0.3,2.2,0.5S629.5,149.5,628.9,150z
		 M631.7,143.1c-0.7,0.5-1.6,0.3-2.2-0.5s-0.4-1.7,0.3-2.2s1.6-0.3,2.2,0.5S632.4,142.6,631.7,143.1z"/>
	<path class="st0" d="M313.3,94.7c-5.7,8.1-3.7,19.4,4.4,25.1c8.1,5.7,19.4,3.7,25.1-4.4c5.7-8.1,3.7-19.4-4.4-25.1
		S319,86.6,313.3,94.7z M330.8,100.4c2.2-3.2,6.6-3.9,9.8-1.7c3.2,2.2,3.9,6.6,1.7,9.8s-6.6,3.9-9.8,1.7
		C329.4,107.9,328.6,103.6,330.8,100.4z M314.4,108.1c-0.7-0.5-0.8-1.5-0.3-2.2s1.5-0.9,2.2-0.5c0.7,0.5,0.8,1.5,0.3,2.2
		S315.1,108.6,314.4,108.1z M319.1,112.3c0.7,0.5,0.8,1.5,0.3,2.2s-1.5,0.9-2.2,0.5c-0.7-0.5-0.8-1.5-0.3-2.2
		S318.5,111.9,319.1,112.3z M316.7,100.7c-0.5,0.7-1.4,0.8-2.1,0.4c-0.7-0.5-0.8-1.4-0.4-2.1c0.5-0.7,1.4-0.8,2.1-0.4
		C317,99,317.1,100,316.7,100.7z"/>
	<polygon class="st1" points="137.6,165.2 141.5,162.3 140.3,157.6 143,153.7 140.3,149.7 141.5,145 137.6,142.2 137.2,137.3 
		132.6,136 130.5,131.7 125.7,132 122.3,128.7 118,130.7 113.7,128.7 110.3,132 105.5,131.7 103.4,136 98.8,137.3 98.4,142.2 
		94.5,145 95.7,149.7 93,153.7 95.7,157.6 94.5,162.3 98.4,165.2 98.8,170 103.4,171.3 105.5,175.6 110.3,175.3 113.7,178.7 
		118,176.7 122.3,178.7 125.7,175.3 130.5,175.6 132.6,171.3 137.2,170 	"/>
	<polygon class="st1" points="305.7,175.6 304.5,180.3 308.4,183.2 308.8,188 313.4,189.3 315.5,193.6 320.3,193.3 323.7,196.7 
		328,194.7 332.3,196.7 335.7,193.3 340.5,193.6 342.6,189.3 347.2,188 347.6,183.2 351.5,180.3 350.3,175.6 353,171.7 350.3,167.7 
		351.5,163 347.6,160.2 347.2,155.3 342.6,154 340.5,149.7 335.7,150 332.3,146.7 328,148.7 323.7,146.7 320.3,150 315.5,149.7 
		313.4,154 308.8,155.3 308.4,160.2 304.5,163 305.7,167.7 303,171.7 	"/>
	<polygon class="st1" points="533.3,241.7 534.5,237 530.6,234.2 530.2,229.3 525.6,228 523.5,223.7 518.7,224 515.3,220.7 
		511,222.7 506.7,220.7 503.3,224 498.5,223.7 496.4,228 491.8,229.3 491.4,234.2 487.5,237 488.7,241.7 486,245.7 488.7,249.6 
		487.5,254.3 491.4,257.2 491.8,262 496.4,263.3 498.5,267.6 503.3,267.3 506.7,270.7 511,268.7 515.3,270.7 518.7,267.3 
		523.5,267.6 525.6,263.3 530.2,262 530.6,257.2 534.5,254.3 533.3,249.6 536,245.7 	"/>
	<polygon class="st1" points="126.3,230.7 127.5,226 123.6,223.2 123.2,218.3 118.6,217 116.5,212.7 111.7,213 108.3,209.7 
		104,211.7 99.7,209.7 96.3,213 91.5,212.7 89.4,217 84.8,218.3 84.4,223.2 80.5,226 81.7,230.7 79,234.7 81.7,238.6 80.5,243.3 
		84.4,246.2 84.8,251 89.4,252.3 91.5,256.6 96.3,256.3 99.7,259.7 104,257.7 108.3,259.7 111.7,256.3 116.5,256.6 118.6,252.3 
		123.2,251 123.6,246.2 127.5,243.3 126.3,238.6 129,234.7 	"/>
	<polygon class="st1" points="189,55.8 188.1,61.4 193.2,64 194.1,69.6 199.7,70.5 202.3,75.5 207.9,74.7 211.9,78.7 217,76.1 
		222.1,78.7 226.1,74.7 231.7,75.5 234.3,70.5 239.9,69.6 240.8,64 245.9,61.4 245,55.8 249,51.7 246.4,46.7 249,41.6 245,37.6 
		245.9,31.9 240.8,29.3 239.9,23.7 234.3,22.8 231.7,17.8 226.1,18.7 222.1,14.7 217,17.2 211.9,14.7 207.9,18.7 202.3,17.8 
		199.7,22.8 194.1,23.7 193.2,29.3 188.1,31.9 189,37.6 185,41.6 187.6,46.7 185,51.7 	"/>
	<polygon class="st1" points="438.1,66.7 437.2,72.3 432.1,74.9 433,80.6 429,84.6 431.6,89.7 429,94.7 433,98.8 432.1,104.4 
		437.2,107 438.1,112.6 443.7,113.5 446.3,118.5 451.9,117.7 455.9,121.7 461,119.1 466.1,121.7 470.1,117.7 475.7,118.5 
		478.3,113.5 483.9,112.6 484.8,107 489.9,104.4 489,98.8 493,94.7 490.4,89.7 493,84.6 489,80.6 489.9,74.9 484.8,72.3 483.9,66.7 
		478.3,65.8 475.7,60.8 470.1,61.7 466.1,57.7 461,60.2 455.9,57.7 451.9,61.7 446.3,60.8 443.7,65.8 	"/>
	<polygon class="st1" points="249.5,250.4 250.3,247.1 247.8,245 247.2,241.7 244,240.8 242.1,238 238.8,238.5 236,236.7 
		233.2,238.5 229.9,238 228,240.8 224.8,241.7 224.2,245 221.7,247.1 222.5,250.4 221,253.4 223.1,256 222.9,259.4 225.9,261 
		227.1,264.1 230.5,264.3 232.9,266.7 236,265.5 239.1,266.7 241.5,264.3 244.9,264.1 246.1,261 249.1,259.4 248.9,256 251,253.4 	
		"/>
	<polygon class="st1" points="83.1,201.7 85.5,199.3 88.9,199.1 90.1,196 93.1,194.4 92.9,191 95,188.4 93.5,185.4 94.3,182.1 
		91.8,180 91.2,176.7 88,175.8 86.1,173 82.8,173.5 80,171.7 77.2,173.5 73.9,173 72,175.8 68.8,176.7 68.2,180 65.7,182.1 
		66.5,185.4 65,188.4 67.1,191 66.9,194.4 69.9,196 71.1,199.1 74.5,199.3 76.9,201.7 80,200.5 	"/>
	<polygon class="st1" points="142.1,49 141.9,52.4 144.9,54 146.1,57.1 149.5,57.3 151.9,59.7 155,58.5 158.1,59.7 160.5,57.3 
		163.9,57.1 165.1,54 168.1,52.4 167.9,49 170,46.4 168.5,43.4 169.3,40.1 166.8,38 166.2,34.7 163,33.8 161.1,31 157.8,31.5 
		155,29.7 152.2,31.5 148.9,31 147,33.8 143.8,34.7 143.2,38 140.7,40.1 141.5,43.4 140,46.4 	"/>
	<polygon class="st1" points="416.1,49 415.9,52.4 418.9,54 420.1,57.1 423.5,57.3 425.9,59.7 429,58.5 432.1,59.7 434.5,57.3 
		437.9,57.1 439.1,54 442.1,52.4 441.9,49 444,46.4 442.5,43.4 443.3,40.1 440.8,38 440.2,34.7 437,33.8 435.1,31 431.8,31.5 
		429,29.7 426.2,31.5 422.9,31 421,33.8 417.8,34.7 417.2,38 414.7,40.1 415.5,43.4 414,46.4 	"/>
	<polygon class="st1" points="464.5,217.4 465.3,214.1 462.8,212 462.2,208.7 459,207.8 457.1,205 453.8,205.5 451,203.7 
		448.2,205.5 444.9,205 443,207.8 439.8,208.7 439.2,212 436.7,214.1 437.5,217.4 436,220.4 438.1,223 437.9,226.4 440.9,228 
		442.1,231.1 445.5,231.3 447.9,233.7 451,232.5 454.1,233.7 456.5,231.3 459.9,231.1 461.1,228 464.1,226.4 463.9,223 466,220.4 	
		"/>
	<polygon class="st1" points="503.5,138.4 504.3,135.1 501.8,133 501.2,129.7 498,128.8 496.1,126 492.8,126.5 490,124.7 
		487.2,126.5 483.9,126 482,128.8 478.8,129.7 478.2,133 475.7,135.1 476.5,138.4 475,141.4 477.1,144 476.9,147.4 479.9,149 
		481.1,152.1 484.5,152.3 486.9,154.7 490,153.5 493.1,154.7 495.5,152.3 498.9,152.1 500.1,149 503.1,147.4 502.9,144 505,141.4 	
		"/>
</g>
</svg>
