<svg xmlns="http://www.w3.org/2000/svg" xmlns:xlink="http://www.w3.org/1999/xlink" version="1.1" id="레이어_1" x="0px" y="0px" viewBox="0 0 648.1 265.3" style="enable-background:new 0 0 648.1 265.3;" xml:space="preserve">
<style type="text/css">
	.st0{fill:#3B5AC3;}
	.st1{fill:#4E4E4E;}
</style>
<g>
	<polygon class="st1" points="514.4,71.2 507.7,73.9 509.3,81 503.5,85.2 506.7,91.7 502,97.3 506.7,102.8 503.5,109.3 509.3,113.6    507.7,120.7 514.4,123.4 514.6,130.7 521.7,131.7 523.6,138.7 530.8,138 534.3,144.4 541.1,142 546,147.3 552,143.3 558,147.3    562.9,142 569.7,144.4 573.2,138 580.4,138.7 582.3,131.7 589.4,130.7 589.6,123.4 596.3,120.7 594.7,113.6 600.5,109.3    597.3,102.8 602,97.3 597.3,91.7 600.5,85.2 594.7,81 596.3,73.9 589.6,71.2 589.4,63.9 582.3,62.9 580.4,55.8 573.2,56.6    569.7,50.2 562.9,52.6 558,47.3 552,51.3 546,47.3 541.1,52.6 534.3,50.2 530.8,56.6 523.6,55.8 521.7,62.9 514.6,63.9  "/>
	<polygon class="st1" points="137.6,157.8 141.5,155 140.3,150.3 143,146.3 140.3,142.3 141.5,137.6 137.6,134.8 137.2,130    132.6,128.7 130.5,124.3 125.7,124.7 122.3,121.3 118,123.3 113.7,121.3 110.3,124.7 105.5,124.3 103.4,128.7 98.8,130 98.4,134.8    94.5,137.6 95.7,142.3 93,146.3 95.7,150.3 94.5,155 98.4,157.8 98.8,162.6 103.4,163.9 105.5,168.3 110.3,167.9 113.7,171.3    118,169.3 122.3,171.3 125.7,167.9 130.5,168.3 132.6,163.9 137.2,162.6  "/>
	<polygon class="st1" points="350.3,160.3 351.5,155.6 347.6,152.8 347.2,148 342.6,146.7 340.5,142.3 335.7,142.7 332.3,139.3    328,141.3 323.7,139.3 320.3,142.7 315.5,142.3 313.4,146.7 308.8,148 308.4,152.8 304.5,155.6 305.7,160.3 303,164.3 305.7,168.3    304.5,173 308.4,175.8 308.8,180.6 313.4,181.9 315.5,186.3 320.3,185.9 323.7,189.3 328,187.3 332.3,189.3 335.7,185.9    340.5,186.3 342.6,181.9 347.2,180.6 347.6,175.8 351.5,173 350.3,168.3 353,164.3  "/>
	<polygon class="st1" points="490.3,206.3 493.7,202.9 498.5,203.3 500.6,198.9 505.2,197.6 505.6,192.8 509.5,190 508.3,185.3    511,181.3 508.3,177.3 509.5,172.6 505.6,169.8 505.2,165 500.6,163.7 498.5,159.3 493.7,159.7 490.3,156.3 486,158.3 481.7,156.3    478.3,159.7 473.5,159.3 471.4,163.7 466.8,165 466.4,169.8 462.5,172.6 463.7,177.3 461,181.3 463.7,185.3 462.5,190 466.4,192.8    466.8,197.6 471.4,198.9 473.5,203.3 478.3,202.9 481.7,206.3 486,204.3  "/>
	<polygon class="st1" points="533.3,234.3 534.5,229.6 530.6,226.8 530.2,222 525.6,220.7 523.5,216.3 518.7,216.7 515.3,213.3    511,215.3 506.7,213.3 503.3,216.7 498.5,216.3 496.4,220.7 491.8,222 491.4,226.8 487.5,229.6 488.7,234.3 486,238.3 488.7,242.3    487.5,247 491.4,249.8 491.8,254.6 496.4,255.9 498.5,260.3 503.3,259.9 506.7,263.3 511,261.3 515.3,263.3 518.7,259.9    523.5,260.3 525.6,255.9 530.2,254.6 530.6,249.8 534.5,247 533.3,242.3 536,238.3  "/>
	<polygon class="st1" points="59.3,212.3 60.5,207.6 56.6,204.8 56.2,200 51.6,198.7 49.5,194.3 44.7,194.7 41.3,191.3 37,193.3    32.7,191.3 29.3,194.7 24.5,194.3 22.4,198.7 17.8,200 17.4,204.8 13.5,207.6 14.7,212.3 12,216.3 14.7,220.3 13.5,225 17.4,227.8    17.8,232.6 22.4,233.9 24.5,238.3 29.3,237.9 32.7,241.3 37,239.3 41.3,241.3 44.7,237.9 49.5,238.3 51.6,233.9 56.2,232.6    56.6,227.8 60.5,225 59.3,220.3 62,216.3  "/>
	<polygon class="st1" points="126.3,223.3 127.5,218.6 123.6,215.8 123.2,211 118.6,209.7 116.5,205.3 111.7,205.7 108.3,202.3    104,204.3 99.7,202.3 96.3,205.7 91.5,205.3 89.4,209.7 84.8,211 84.4,215.8 80.5,218.6 81.7,223.3 79,227.3 81.7,231.3 80.5,236    84.4,238.8 84.8,243.6 89.4,244.9 91.5,249.3 96.3,248.9 99.7,252.3 104,250.3 108.3,252.3 111.7,248.9 116.5,249.3 118.6,244.9    123.2,243.6 123.6,238.8 127.5,236 126.3,231.3 129,227.3  "/>
	<polygon class="st1" points="189,48.4 188.1,54 193.2,56.6 194.1,62.2 199.7,63.1 202.3,68.2 207.9,67.3 211.9,71.3 217,68.7    222.1,71.3 226.1,67.3 231.7,68.2 234.3,63.1 239.9,62.2 240.8,56.6 245.9,54 245,48.4 249,44.4 246.4,39.3 249,34.2 245,30.2    245.9,24.6 240.8,22 239.9,16.4 234.3,15.5 231.7,10.4 226.1,11.3 222.1,7.3 217,9.9 211.9,7.3 207.9,11.3 202.3,10.4 199.7,15.5    194.1,16.4 193.2,22 188.1,24.6 189,30.2 185,34.2 187.6,39.3 185,44.4  "/>
	<polygon class="st1" points="433,91.4 432.1,97 437.2,99.6 438.1,105.2 443.7,106.1 446.3,111.2 451.9,110.3 455.9,114.3    461,111.7 466.1,114.3 470.1,110.3 475.7,111.2 478.3,106.1 483.9,105.2 484.8,99.6 489.9,97 489,91.4 493,87.4 490.4,82.3    493,77.2 489,73.2 489.9,67.6 484.8,65 483.9,59.4 478.3,58.5 475.7,53.4 470.1,54.3 466.1,50.3 461,52.9 455.9,50.3 451.9,54.3    446.3,53.4 443.7,58.5 438.1,59.4 437.2,65 432.1,67.6 433,73.2 429,77.2 431.6,82.3 429,87.4  "/>
	<polygon class="st1" points="363,224.2 363.9,218.6 358.8,216 357.9,210.4 352.3,209.5 349.7,204.4 344.1,205.3 340.1,201.3    335,203.9 329.9,201.3 325.9,205.3 320.3,204.4 317.7,209.5 312.1,210.4 311.2,216 306.1,218.6 307,224.2 303,228.2 305.6,233.3    303,238.4 307,242.4 306.1,248 311.2,250.6 312.1,256.2 317.7,257.1 320.3,262.2 325.9,261.3 329.9,265.3 335,262.7 340.1,265.3    344.1,261.3 349.7,262.2 352.3,257.1 357.9,256.2 358.8,250.6 363.9,248 363,242.4 367,238.4 364.4,233.3 367,228.2  "/>
	<polygon class="st1" points="237.6,157.8 244.2,156.5 249,161.3 255,158.1 261,161.3 265.8,156.5 272.4,157.8 275.6,151.7    282.3,151 283.5,144.3 289.7,141.6 289,134.9 294.1,130.5 291.4,124.3 295,118.5 290.6,113.4 292.3,106.8 286.6,103.2 286.4,96.4    279.8,94.7 277.6,88.3 270.8,88.5 266.8,83.1 260.4,85.3 255,81.3 249.6,85.3 243.2,83.1 239.2,88.5 232.4,88.3 230.2,94.7    223.6,96.4 223.4,103.2 217.7,106.8 219.4,113.4 215,118.5 218.6,124.2 215.9,130.5 221,134.9 220.3,141.6 226.5,144.3 227.7,151    234.4,151.8  "/>
	<polygon class="st1" points="262.5,243 263.3,239.8 260.8,237.6 260.2,234.3 257,233.4 255.1,230.6 251.8,231.1 249,229.3    246.2,231.1 242.9,230.6 241,233.4 237.8,234.3 237.2,237.6 234.7,239.8 235.5,243 234,246 236.1,248.7 235.9,252 238.9,253.6    240.1,256.7 243.5,256.9 245.9,259.3 249,258.1 252.1,259.3 254.5,256.9 257.9,256.7 259.1,253.6 262.1,252 261.9,248.7 264,246     "/>
	<polygon class="st1" points="83.1,194.3 85.5,191.9 88.9,191.7 90.1,188.6 93.1,187 92.9,183.7 95,181 93.5,178 94.3,174.8    91.8,172.6 91.2,169.3 88,168.4 86.1,165.6 82.8,166.1 80,164.3 77.2,166.1 73.9,165.6 72,168.4 68.8,169.3 68.2,172.6 65.7,174.8    66.5,178 65,181 67.1,183.7 66.9,187 69.9,188.6 71.1,191.7 74.5,191.9 76.9,194.3 80,193.1  "/>
	<polygon class="st1" points="142.1,41.7 141.9,45 144.9,46.6 146.1,49.7 149.5,49.9 151.9,52.3 155,51.1 158.1,52.3 160.5,49.9    163.9,49.7 165.1,46.6 168.1,45 167.9,41.7 170,39 168.5,36 169.3,32.8 166.8,30.6 166.2,27.3 163,26.4 161.1,23.6 157.8,24.1    155,22.3 152.2,24.1 148.9,23.6 147,26.4 143.8,27.3 143.2,30.6 140.7,32.8 141.5,36 140,39  "/>
	<polygon class="st1" points="431.1,27.7 430.9,31 433.9,32.6 435.1,35.7 438.5,35.9 440.9,38.3 444,37.1 447.1,38.3 449.5,35.9    452.9,35.7 454.1,32.6 457.1,31 456.9,27.7 459,25 457.5,22 458.3,18.8 455.8,16.6 455.2,13.3 452,12.4 450.1,9.6 446.8,10.1    444,8.3 441.2,10.1 437.9,9.6 436,12.4 432.8,13.3 432.2,16.6 429.7,18.8 430.5,22 429,25  "/>
	<polygon class="st1" points="462.5,210 463.3,206.8 460.8,204.6 460.2,201.3 457,200.4 455.1,197.6 451.8,198.1 449,196.3    446.2,198.1 442.9,197.6 441,200.4 437.8,201.3 437.2,204.6 434.7,206.8 435.5,210 434,213 436.1,215.7 435.9,219 438.9,220.6    440.1,223.7 443.5,223.9 445.9,226.3 449,225.1 452.1,226.3 454.5,223.9 457.9,223.7 459.1,220.6 462.1,219 461.9,215.7 464,213     "/>
	<polygon class="st1" points="503.5,131 504.3,127.8 501.8,125.6 501.2,122.3 498,121.4 496.1,118.6 492.8,119.1 490,117.3    487.2,119.1 483.9,118.6 482,121.4 478.8,122.3 478.2,125.6 475.7,127.8 476.5,131 475,134 477.1,136.7 476.9,140 479.9,141.6    481.1,144.7 484.5,144.9 486.9,147.3 490,146.1 493.1,147.3 495.5,144.9 498.9,144.7 500.1,141.6 503.1,140 502.9,136.7 505,134     "/>
	<path class="st0" d="M445,122.8c-12.4-21.5-39.9-28.9-61.5-16.5c-21.5,12.4-28.9,39.9-16.5,61.5c12.4,21.5,39.9,28.9,61.5,16.5   C450,171.8,457.4,144.3,445,122.8z M399.5,106.3c1.9-1.1,4.4-0.4,5.5,1.5c1.1,1.9,0.4,4.4-1.5,5.5c-1.9,1.1-4.4,0.4-5.5-1.5   C397,109.8,397.6,107.4,399.5,106.3z M408,180.8c-8.6,5-19.6,2-24.6-6.6c-5-8.6-2-19.6,6.6-24.6c8.6-5,19.6-2,24.6,6.6   C419.6,164.8,416.6,175.8,408,180.8z M419.4,114.8c-1.9,1.1-4.4,0.4-5.5-1.5c-1.1-1.9-0.4-4.4,1.5-5.5c1.9-1.1,4.4-0.4,5.5,1.5   C422,111.2,421.3,113.6,419.4,114.8z M433.2,122.4c-1.9,1.1-4.4,0.4-5.5-1.5c-1.1-1.9-0.4-4.4,1.5-5.5c1.9-1.1,4.4-0.4,5.5,1.5   C435.8,118.9,435.1,121.3,433.2,122.4z"/>
	<path class="st0" d="M204.5,161.3c-21.5-12.4-49-5.1-61.5,16.5c-12.4,21.5-5.1,49,16.5,61.5c21.5,12.4,49,5.1,61.5-16.5   C233.4,201.3,226,173.7,204.5,161.3z M176.8,213.2c-5,8.6-16,11.6-24.6,6.6c-8.6-5-11.6-16-6.6-24.6c5-8.6,16-11.6,24.6-6.6   C178.9,193.6,181.8,204.6,176.8,213.2z M220.9,211c-1.1,1.9-3.6,2.6-5.5,1.5c-1.9-1.1-2.6-3.6-1.5-5.5c1.1-1.9,3.6-2.6,5.5-1.5   C221.3,206.6,222,209,220.9,211z M219.2,189.7c1.9,1.1,2.6,3.6,1.5,5.5c-1.1,1.9-3.6,2.6-5.5,1.5c-1.9-1.1-2.6-3.6-1.5-5.5   C214.8,189.3,217.2,188.6,219.2,189.7z M214,180.7c-1.1,1.9-3.6,2.6-5.5,1.5c-1.9-1.1-2.6-3.6-1.5-5.5c1.1-1.9,3.6-2.6,5.5-1.5   C214.5,176.3,215.1,178.8,214,180.7z"/>
	<path class="st0" d="M586.8,154c-24.5-4.3-47.8,12-52.2,36.5c-4.3,24.5,12,47.8,36.5,52.2c24.5,4.3,47.8-12,52.2-36.5   C627.6,181.6,611.3,158.3,586.8,154z M550.2,182.9c-0.4,2.2-2.5,3.6-4.6,3.2c-2.2-0.4-3.6-2.5-3.2-4.6s2.5-3.6,4.6-3.2   S550.6,180.7,550.2,182.9z M560.6,170.9c-0.4,2.2-2.5,3.6-4.6,3.2c-2.2-0.4-3.6-2.5-3.2-4.6s2.5-3.6,4.6-3.2S561,168.8,560.6,170.9   z M570.3,167.3c-2.2-0.4-3.6-2.5-3.2-4.6c0.4-2.2,2.5-3.6,4.6-3.2s3.6,2.5,3.2,4.6S572.5,167.7,570.3,167.3z M610.1,217.8   c-1.7,9.8-11.1,16.3-20.9,14.6c-9.8-1.7-16.3-11.1-14.6-20.9c1.7-9.8,11.1-16.3,20.9-14.6C605.3,198.6,611.8,208,610.1,217.8z"/>
	<path class="st0" d="M101.3,98.3c19.3-15.6,22.3-44,6.7-63.3c-15.6-19.3-44-22.3-63.3-6.7C25.4,44,22.4,72.3,38,91.6   C53.7,110.9,82,113.9,101.3,98.3z M69.6,101.8c-1.7,1.4-4.2,1.1-5.6-0.6c-1.4-1.7-1.1-4.2,0.6-5.6s4.2-1.1,5.6,0.6   C71.5,97.9,71.3,100.4,69.6,101.8z M85.5,100.8c-1.7,1.4-4.2,1.1-5.6-0.6c-1.4-1.7-1.1-4.2,0.6-5.6s4.2-1.1,5.6,0.6   C87.5,96.9,87.2,99.4,85.5,100.8z M65.4,28.5c7.7-6.3,19.1-5.1,25.3,2.7c6.3,7.7,5.1,19.1-2.7,25.3c-7.7,6.3-19.1,5.1-25.3-2.7   C56.5,46.1,57.7,34.8,65.4,28.5z M49.7,90.1c1.7-1.4,4.2-1.1,5.6,0.6c1.4,1.7,1.1,4.2-0.6,5.6c-1.7,1.4-4.2,1.1-5.6-0.6   C47.7,94,48,91.5,49.7,90.1z"/>
	<path class="st0" d="M170,136.3c19.9,0,36-16.1,36-36s-16.1-36-36-36s-36,16.1-36,36S150.1,136.3,170,136.3z M180.8,72.3   c7.7,0,14,6.3,14,14s-6.3,14-14,14s-14-6.3-14-14S173,72.3,180.8,72.3z M160.3,124.3c1.7,0,3,1.3,3,3s-1.3,3-3,3s-3-1.3-3-3   S158.6,124.3,160.3,124.3z M150.5,117.3c1.7,0,3,1.3,3,3s-1.3,3-3,3s-3-1.3-3-3S148.8,117.3,150.5,117.3z M141,109.9   c0-1.7,1.3-3,3-3s3,1.3,3,3c0,1.7-1.3,3-3,3S141,111.6,141,109.9z"/>
	<path class="st0" d="M371,85.3c19.9,0,36-16.1,36-36s-16.1-36-36-36s-36,16.1-36,36S351.1,85.3,371,85.3z M397,55.9   c1.7,0,3,1.3,3,3s-1.3,3-3,3s-3-1.3-3-3S395.3,55.9,397,55.9z M390.5,66.3c1.7,0,3,1.3,3,3s-1.3,3-3,3s-3-1.3-3-3   S388.9,66.3,390.5,66.3z M380.7,73.3c1.7,0,3,1.3,3,3s-1.3,3-3,3s-3-1.3-3-3S379.1,73.3,380.7,73.3z M360.2,21.3   c7.7,0,14,6.3,14,14s-6.3,14-14,14s-14-6.3-14-14S352.5,21.3,360.2,21.3z"/>
	<path class="st0" d="M273,170.3c-15.5,0-28,12.5-28,28s12.5,28,28,28s28-12.5,28-28S288.5,170.3,273,170.3z M253.2,191.2   c-1.2,0-2.2-1-2.2-2.2s1-2.2,2.2-2.2s2.2,1,2.2,2.2S254.4,191.2,253.2,191.2z M257.8,184.5c-1.2,0-2.2-1-2.2-2.2s1-2.2,2.2-2.2   s2.2,1,2.2,2.2S259,184.5,257.8,184.5z M265,179.7c-1.2,0-2.2-1-2.2-2.2s1-2.2,2.2-2.2s2.2,1,2.2,2.2S266.3,179.7,265,179.7z    M279.8,219.3c-6.6,0-12-5.4-12-12s5.4-12,12-12s12,5.4,12,12S286.4,219.3,279.8,219.3z"/>
	<path class="st0" d="M56,143.3c0-15.5-12.5-28-28-28s-28,12.5-28,28s12.5,28,28,28S56,158.8,56,143.3z M8.2,136.2   c-1.2,0-2.2-1-2.2-2.2s1-2.2,2.2-2.2s2.2,1,2.2,2.2S9.4,136.2,8.2,136.2z M12.8,129.5c-1.2,0-2.2-1-2.2-2.2s1-2.2,2.2-2.2   s2.2,1,2.2,2.2S14,129.5,12.8,129.5z M20,124.7c-1.2,0-2.2-1-2.2-2.2s1-2.2,2.2-2.2s2.2,1,2.2,2.2S21.3,124.7,20,124.7z    M22.8,152.3c0-6.6,5.4-12,12-12s12,5.4,12,12s-5.4,12-12,12S22.8,158.9,22.8,152.3z"/>
	<path class="st0" d="M289,78.3c15.5,0,28-12.5,28-28s-12.5-28-28-28s-28,12.5-28,28S273.5,78.3,289,78.3z M309.8,40.1   c1.2,0,2.2,1,2.2,2.2s-1,2.2-2.2,2.2s-2.2-1-2.2-2.2S308.6,40.1,309.8,40.1z M305,32.9c1.2,0,2.2,1,2.2,2.2s-1,2.2-2.2,2.2   s-2.2-1-2.2-2.2S303.8,32.9,305,32.9z M298.3,28.3c1.2,0,2.2,1,2.2,2.2s-1,2.2-2.2,2.2s-2.2-1-2.2-2.2S297.1,28.3,298.3,28.3z    M280,45.1c6.6,0,12,5.4,12,12s-5.4,12-12,12s-12-5.4-12-12S273.4,45.1,280,45.1z"/>
	<path class="st0" d="M399,201.3c-15.5,0-28,12.5-28,28s12.5,28,28,28s28-12.5,28-28S414.5,201.3,399,201.3z M378.2,239.4   c-1.2,0-2.2-1-2.2-2.2s1-2.2,2.2-2.2s2.2,1,2.2,2.2S379.4,239.4,378.2,239.4z M383,246.7c-1.2,0-2.2-1-2.2-2.2s1-2.2,2.2-2.2   s2.2,1,2.2,2.2S384.2,246.7,383,246.7z M389.7,251.3c-1.2,0-2.2-1-2.2-2.2s1-2.2,2.2-2.2s2.2,1,2.2,2.2S390.9,251.3,389.7,251.3z    M408,234.5c-6.6,0-12-5.4-12-12s5.4-12,12-12s12,5.4,12,12S414.6,234.5,408,234.5z"/>
	<path class="st0" d="M311.3,94.4c-5.7,8.1-3.7,19.4,4.4,25.1c8.1,5.7,19.4,3.7,25.1-4.4c5.7-8.1,3.7-19.4-4.4-25.1   C328.3,84.3,317,86.2,311.3,94.4z M322,118.2c-0.5,0.7-1.4,0.8-2.1,0.4c-0.7-0.5-0.8-1.4-0.4-2.1c0.5-0.7,1.4-0.8,2.1-0.4   S322.5,117.5,322,118.2z M329.1,118.3c-0.5,0.7-1.5,0.8-2.2,0.3s-0.9-1.5-0.5-2.2c0.5-0.7,1.5-0.8,2.2-0.3S329.6,117.7,329.1,118.3   z M333.3,113.6c0.5-0.7,1.5-0.8,2.2-0.3s0.9,1.5,0.5,2.2s-1.5,0.8-2.2,0.3S332.9,114.3,333.3,113.6z M319.7,92.2   c2.2-3.2,6.6-3.9,9.8-1.7s3.9,6.6,1.7,9.8c-2.2,3.2-6.6,3.9-9.8,1.7C318.3,99.7,317.5,95.4,319.7,92.2z"/>
	<path class="st0" d="M637.8,122.4c-5.7-8.1-16.9-10.1-25.1-4.4c-8.1,5.7-10.1,16.9-4.4,25.1c5.7,8.1,16.9,10.1,25.1,4.4   C641.5,141.8,643.5,130.5,637.8,122.4z M618.6,137.8c-3.2,2.2-7.5,1.5-9.8-1.7c-2.2-3.2-1.5-7.5,1.7-9.8s7.5-1.5,9.8,1.7   C622.5,131.2,621.8,135.6,618.6,137.8z M634.9,126.2c0.7-0.5,1.6-0.3,2.1,0.4c0.5,0.7,0.3,1.6-0.4,2.1c-0.7,0.5-1.6,0.3-2.1-0.4   S634.2,126.7,634.9,126.2z M633.9,142.6c-0.7,0.5-1.6,0.3-2.2-0.5s-0.4-1.7,0.3-2.2c0.7-0.5,1.6-0.3,2.2,0.5   S634.5,142.1,633.9,142.6z M636.7,135.8c-0.7,0.5-1.6,0.3-2.2-0.5s-0.4-1.7,0.3-2.2c0.7-0.5,1.6-0.3,2.2,0.5   S637.4,135.3,636.7,135.8z"/>
	<path class="st0" d="M488.7,52.5c8.1,5.7,19.4,3.7,25.1-4.4c5.7-8.1,3.7-19.4-4.4-25.1c-8.1-5.7-19.4-3.7-25.1,4.4   C478.6,35.5,480.6,46.7,488.7,52.5z M501.8,33.1c2.2-3.2,6.6-3.9,9.8-1.7c3.2,2.2,3.9,6.6,1.7,9.8s-6.6,3.9-9.8,1.7   C500.4,40.6,499.6,36.2,501.8,33.1z M490.1,45c0.7,0.5,0.8,1.5,0.3,2.2s-1.5,0.9-2.2,0.5c-0.7-0.5-0.8-1.5-0.3-2.2   S489.5,44.5,490.1,45z M485.2,31.6c0.5-0.7,1.4-0.8,2.1-0.4c0.7,0.5,0.8,1.4,0.4,2.1s-1.4,0.8-2.1,0.4   C484.9,33.2,484.7,32.3,485.2,31.6z M485.1,38.6c0.5-0.7,1.5-0.9,2.2-0.5c0.7,0.5,0.8,1.5,0.3,2.2s-1.5,0.9-2.2,0.5   C484.8,40.3,484.6,39.3,485.1,38.6z"/>
</g>
</svg>