<?xml version="1.0" encoding="utf-8"?>
<!-- Generator: Adobe Illustrator 24.3.0, SVG Export Plug-In . SVG Version: 6.00 Build 0)  -->
<svg version="1.1" id="레이어_1" xmlns="http://www.w3.org/2000/svg" xmlns:xlink="http://www.w3.org/1999/xlink" x="0px"
	 y="0px" viewBox="0 0 1558.4 169.5" style="enable-background:new 0 0 1558.4 169.5;" xml:space="preserve">
<style type="text/css">
	.st0{fill:#BA0000;}
	.st1{fill:#212121;}
</style>
<g id="그룹_1560" transform="translate(-181 -315)">
	<g id="구성_요소_15_1" transform="translate(618.371 317.752)">
		<path id="패스_1602" class="st0" d="M0.2,147.2V16.7L0,0h15.6l24.1,95.9c2.3,8.7,3.9,16.3,5,22.9h0.7
			c-0.2-6.4-0.7-15.8-0.7-22.7V16.7L44.5,0h14.4l-0.2,16.7v130.5l0.2,16.7H45.2L19.5,62.6c-2.5-9.4-3.9-16.5-5-23.2h-0.7
			c0.2,6.4,0.7,16.1,0.7,22.9v84.8l0.2,16.7H0L0.2,147.2z"/>
		<path id="패스_1603" class="st0" d="M85.9,164H70.8L91,0h20.2l20,164h-14.9l-4.4-40.4H90.1L85.9,164z M91.7,110.1h18.6
			l-6.9-65.4c-0.9-7.6-1.6-18.8-2.1-23.8h-0.7c-0.5,5-1.1,16.3-2.1,23.8L91.7,110.1z"/>
		<path id="패스_1604" class="st0" d="M164.3,13.3v133.9l0.2,16.7h-15.1l0.2-16.7V13.3h-19.7V0h54.1v13.3H164.3z"/>
		<path id="패스_1605" class="st0" d="M249.1,0l-0.2,16.7v113.1c0,23.8-9.2,36.9-26.4,36.9c-17.7,0-26.8-13.1-26.8-36.9V16.7
			L195.4,0h15.1l-0.2,16.7v111.4c0,15.8,3.2,24.5,12.2,24.5c8.5,0,11.7-8.7,11.7-24.5V16.7L233.9,0L249.1,0z"/>
		<path id="패스_1606" class="st0" d="M301.7,87.1l18.1,76.8h-15.6l-16.1-72.2h-9.6v55.5l0.2,16.7h-15.1l0.2-16.7V16.7L263.6,0
			H285c26.4,0,32.8,20.6,32.8,45.9v0.5C317.8,64.2,313.2,79.8,301.7,87.1z M278.5,78.7h6.4c13.3,0,17.4-13.8,17.4-32.1v-0.7
			c0-18.1-3.4-32.6-19-32.6h-4.8V78.7z"/>
		<path id="패스_1607" class="st0" d="M344.7,164h-15.1L349.7,0h20.2l20,164H375l-4.4-40.4h-21.8L344.7,164z M350.4,110.1H369
			l-6.9-65.4c-0.9-7.6-1.6-18.8-2.1-23.8h-0.7c-0.5,5-1.1,16.3-2.1,23.8L350.4,110.1z"/>
		<path id="패스_1608" class="st0" d="M401.7,164l0.2-16.7V16.7L401.7,0h15.1l-0.2,16.7v133.9h28.9V164L401.7,164z"/>
	</g>
	<g id="구성_요소_16_1" transform="translate(1100.109 317.752)">
		<path id="패스_1609" class="st0" d="M58,0L34.6,65.4L58.9,164H43.3L24.5,85.1L14.9,108v39.2l0.2,16.7H0l0.2-16.7V16.7L0,0h15.1
			l-0.2,16.7v48.4c0,3.4,0,8-0.2,11.7h0.7l3.2-10.5L42,0L58,0z"/>
		<path id="패스_1610" class="st0" d="M85.9,0l-0.2,16.7v130.5l0.2,16.7H70.7l0.2-16.7V16.7L70.7,0L85.9,0z"/>
		<path id="패스_1611" class="st0" d="M100.8,164l0.2-16.7V16.7L100.8,0H116l-0.2,16.7v133.9h28.9V164L100.8,164z"/>
		<path id="패스_1612" class="st0" d="M156.3,164l0.2-16.7V16.7L156.3,0h15.1l-0.2,16.7v133.9h28.9V164L156.3,164z"/>
		<path id="패스_1613" class="st0" d="M226.6,85.3v65.4h32.1V164h-47l0.2-16.7V16.7L211.7,0h46.1v13.3h-31.2v58.2h25.5v13.8
			L226.6,85.3z"/>
		<path id="패스_1614" class="st0" d="M309.7,87.1l18.1,76.8h-15.6l-16.1-72.2h-9.6v55.5l0.2,16.7h-15.1l0.2-16.7V16.7L271.6,0
			H293c26.4,0,32.8,20.6,32.8,45.9v0.5C325.7,64.2,321.2,79.8,309.7,87.1z M286.5,78.7h6.4c13.3,0,17.4-13.8,17.4-32.1v-0.7
			c0-18.1-3.4-32.6-19-32.6h-4.8V78.7z"/>
	</g>
	<g id="구성_요소_17_1" transform="translate(1465.287 315)">
		<path id="패스_1615" class="st0" d="M53.9,116v1.4c0,23.2-0.7,52.1-27.1,52.1S0,140.6,0,117.4V52.1C0,28.9,0.5,0,26.8,0
			c25.7,0,26.8,28,26.8,49.1v0.7H38.8v-0.7c0-22.2-0.9-35.1-11.9-35.1S14.9,26.8,14.9,49.1v71.3c0,22.2,0.9,35.1,11.9,35.1
			S39,142.6,39,120.4V116H53.9z"/>
		<path id="패스_1616" class="st0" d="M81.8,88.1v65.4h32.1v13.3h-47l0.2-16.7V19.5L66.9,2.8H113v13.3H81.8v58.2h25.5v13.8
			L81.8,88.1z"/>
		<path id="패스_1617" class="st0" d="M126.8,166.7L127,150V19.5l-0.2-16.7h15.1l-0.2,16.7v133.9h28.9v13.3L126.8,166.7z"/>
		<path id="패스_1618" class="st0" d="M182.2,166.7l0.2-16.7V19.5l-0.2-16.7h15.1l-0.2,16.7v133.9H226v13.3L182.2,166.7z"/>
	</g>
	<g id="구성_요소_13_1" transform="translate(181 317.752)">
		<path id="패스_1596" class="st1" d="M0,0h14.2l9.9,103.7c0.7,6.9,0.9,14.7,1.1,21.1h0.7l1.4-21.1L37.2,0H50l9.9,103.7l1.4,21.1
			h0.7c0.2-6.4,0.7-14.2,1.4-21.1L72.9,0h14L69.3,164H55L44.9,63.8c-0.2-3.2-1.1-17.9-1.1-21.1h-0.7l-1.4,21.1L31.9,164H17.4L0,0z"
			/>
		<path id="패스_1597" class="st1" d="M153.2,0L153,16.7v130.5l0.2,16.7h-15.1l0.2-16.7V85.3H114v61.9l0.2,16.7H99.1l0.2-16.7
			V16.7L99.1,0h15.1L114,16.7v54.8h24.3V16.7L138.1,0L153.2,0z"/>
		<path id="패스_1598" class="st1" d="M180.1,164H165L185.2,0h20.2l20,164h-14.9l-4.4-40.4h-21.8L180.1,164z M185.9,110.1h18.6
			l-6.9-65.4c-0.9-7.6-1.6-18.8-2.1-23.8h-0.7c-0.5,5-1.1,16.3-2.1,23.8L185.9,110.1z"/>
		<path id="패스_1599" class="st1" d="M258.5,13.3v133.9l0.2,16.7h-15.1l0.2-16.7V13.3h-19.7V0h54.1v13.3H258.5z"/>
	</g>
	<g id="구성_요소_14_1" transform="translate(495.461 315)">
		<path id="패스_1600" class="st1" d="M15.1,2.8l-0.2,16.7V150l0.2,16.7H0L0.2,150V19.5L0,2.8L15.1,2.8z"/>
		<path id="패스_1601" class="st1" d="M41.7,122.5c0.9,22.7,6,33,15.1,33c8,0,12.8-8,12.8-22.7c0-13.8-4.4-22.7-12.6-34.4
			L44.7,80.5C33.5,64.4,29.4,51.6,29.4,37.1C29.4,13.3,40.8,0,56.4,0c16.7,0,25.7,15.8,27.3,41l-14.4,1.8C68.8,25.2,64.7,14,56.2,14
			c-6.9,0-11.7,7.3-11.7,22c0,14.2,4.6,22.2,12.2,33.3L69,87.4c10.5,15.1,15.6,27.5,15.6,44.5c0,24.3-10.5,37.6-27.5,37.6
			c-18.6,0-28.7-16.1-30-45.2L41.7,122.5z"/>
	</g>
	<g id="구성_요소_18_1" transform="translate(1691.684 315)">
		<path id="패스_1619" class="st1" d="M16.5,118.3v-12.2c0-21.6,5.3-37.1,10.3-50c3.4-8.7,6.9-17.7,6.9-27.3
			c0-10.8-3-16.1-8.9-16.1c-6.7,0-10.1,6.4-13.1,17.9L0,26.4C4.1,9.9,12.4,0,25.7,0c14,0,22,10.5,22,28.9c0,12.4-3.9,22.9-8,31.9
			c-5.7,12.6-11,25.5-11,45.6v11.9L16.5,118.3z M15.6,140.3h13.8v26.4H15.6V140.3z"/>
	</g>
</g>
</svg>
