<svg id="_1" data-name="1" xmlns="http://www.w3.org/2000/svg" width="100" height="100" viewBox="0 0 100 100">
  <path id="다각형_64" data-name="다각형 64" d="M56.027,0l4.9,5.337,6.8-2.431,3.491,6.363,7.182-.72,1.878,7.02L87.426,16.6l.156,7.269,6.692,2.724L92.7,33.688l5.85,4.258-3.215,6.509L100,50l-4.668,5.545,3.215,6.509L92.7,66.312l1.576,7.095-6.692,2.724L87.426,83.4l-7.144,1.032L78.4,91.451l-7.182-.72L67.73,97.094l-6.8-2.431L56.027,100,50,96l-6.027,4-4.9-5.337-6.8,2.431-3.491-6.363-7.182.72-1.878-7.02L12.574,83.4l-.156-7.269L5.727,73.407l1.576-7.1-5.85-4.258,3.215-6.509L0,50l4.668-5.545L1.453,37.946,7.3,33.688l-1.576-7.1,6.692-2.724.156-7.269,7.144-1.032L21.6,8.549l7.182.72L32.27,2.906l6.8,2.431L43.973,0,50,4Z" fill="#4e4e4e"/>
</svg>
