<svg xmlns="http://www.w3.org/2000/svg" width="227" height="224" viewBox="0 0 227 224">
  <path id="다각형_36" data-name="다각형 36" d="M127.181,0l11.126,11.954,15.441-5.445,7.925,14.254,16.3-1.614,4.263,15.725,16.218,2.311.353,16.282,15.19,6.1-3.577,15.893L223.7,85l-7.3,14.58L227,112l-10.6,12.42L223.7,139l-13.279,9.538L214,164.431l-15.19,6.1-.353,16.282-16.218,2.311-4.263,15.725-16.3-1.614-7.925,14.254-15.441-5.445L127.181,224,113.5,215.04,99.819,224,88.693,212.046l-15.441,5.445-7.925-14.254-16.3,1.614-4.263-15.725-16.218-2.311-.353-16.282L13,164.431l3.577-15.893L3.3,139l7.3-14.58L0,112,10.6,99.58,3.3,85l13.279-9.538L13,59.569l15.19-6.1.353-16.282,16.218-2.311,4.263-15.725,16.3,1.614L73.252,6.509l15.441,5.445L99.819,0,113.5,8.96Z" fill="#840b16"/>
</svg>
