<svg xmlns="http://www.w3.org/2000/svg" width="1558.382" height="169.464" viewBox="0 0 1558.382 169.464">
  <g id="그룹_1560" data-name="그룹 1560" transform="translate(-181 -315)">
    <g id="구성_요소_15_1" data-name="구성 요소 15 – 1" transform="translate(618.371 317.752)">
      <path id="패스_1602" data-name="패스 1602" d="M607.578,457.082V326.6l-.229-16.74h15.593l24.078,95.854c2.293,8.714,3.9,16.281,5.045,22.931h.688c-.229-6.421-.688-15.822-.688-22.7V326.6l-.229-16.74h14.447l-.229,16.74V457.082l.229,16.739H652.524L626.841,372.464c-2.523-9.4-3.9-16.511-5.045-23.161h-.688c.229,6.421.688,16.052.688,22.932v84.847l.229,16.739H607.349Z" transform="translate(-607.349 -309.861)" fill="#ba0000"/>
      <path id="패스_1603" data-name="패스 1603" d="M693.295,473.821H678.16l20.18-163.96h20.18l19.95,163.96h-14.9l-4.357-40.359H697.423Zm5.733-53.889H717.6l-6.879-65.355c-.917-7.567-1.605-18.8-2.064-23.848h-.688c-.459,5.045-1.146,16.281-2.064,23.848Z" transform="translate(-607.349 -309.861)" fill="#ba0000"/>
      <path id="패스_1604" data-name="패스 1604" d="M771.675,323.161V457.082l.229,16.739H756.769l.23-16.739V323.161H737.278v-13.3H791.4v13.3Z" transform="translate(-607.349 -309.861)" fill="#ba0000"/>
      <path id="패스_1605" data-name="패스 1605" d="M856.407,309.861l-.229,16.74V439.654c0,23.848-9.173,36.919-26.372,36.919-17.657,0-26.83-13.071-26.83-36.919V326.6l-.229-16.74h15.135l-.229,16.74V438.048c0,15.823,3.21,24.537,12.153,24.537,8.485,0,11.695-8.714,11.695-24.537V326.6l-.229-16.74Z" transform="translate(-607.349 -309.861)" fill="#ba0000"/>
      <path id="패스_1606" data-name="패스 1606" d="M909.055,397l18.116,76.82H911.577l-16.052-72.234h-9.631v55.495l.229,16.739H870.989l.229-16.739V326.6l-.229-16.74h21.326c26.371,0,32.792,20.638,32.792,45.863v.459C925.107,374.069,920.521,389.663,909.055,397Zm-23.161-8.485h6.421c13.3,0,17.428-13.759,17.428-32.1v-.688c0-18.116-3.44-32.563-19.033-32.563h-4.816Z" transform="translate(-607.349 -309.861)" fill="#ba0000"/>
      <path id="패스_1607" data-name="패스 1607" d="M952.026,473.821H936.891l20.18-163.96h20.18l19.95,163.96H982.3l-4.357-40.359H956.154Zm5.733-53.889h18.574l-6.879-65.355c-.917-7.567-1.6-18.8-2.064-23.848H966.7c-.458,5.045-1.146,16.281-2.064,23.848Z" transform="translate(-607.349 -309.861)" fill="#ba0000"/>
      <path id="패스_1608" data-name="패스 1608" d="M1009.057,473.821l.229-16.739V326.6l-.229-16.74h15.135l-.23,16.74v133.92h28.894v13.3Z" transform="translate(-607.349 -309.861)" fill="#ba0000"/>
    </g>
    <g id="구성_요소_16_1" data-name="구성 요소 16 – 1" transform="translate(1100.109 317.752)">
      <path id="패스_1609" data-name="패스 1609" d="M1147.1,309.861l-23.39,65.355,24.307,98.605h-15.593l-18.8-78.884-9.631,22.931v39.214l.229,16.739h-15.135l.23-16.739V326.6l-.23-16.74h15.135l-.229,16.74v48.386c0,3.439,0,8.026-.229,11.7h.687l3.211-10.549,23.39-66.272Z" transform="translate(-1089.087 -309.861)" fill="#ba0000"/>
      <path id="패스_1610" data-name="패스 1610" d="M1174.942,309.861l-.229,16.74V457.082l.229,16.739h-15.135l.229-16.739V326.6l-.229-16.74Z" transform="translate(-1089.087 -309.861)" fill="#ba0000"/>
      <path id="패스_1611" data-name="패스 1611" d="M1189.916,473.821l.229-16.739V326.6l-.229-16.74h15.135l-.23,16.74v133.92h28.894v13.3Z" transform="translate(-1089.087 -309.861)" fill="#ba0000"/>
      <path id="패스_1612" data-name="패스 1612" d="M1245.365,473.821l.229-16.739V326.6l-.229-16.74H1260.5l-.23,16.74v133.92h28.894v13.3Z" transform="translate(-1089.087 -309.861)" fill="#ba0000"/>
      <path id="패스_1613" data-name="패스 1613" d="M1315.719,395.166v65.355h32.1v13.3h-47.01l.23-16.739V326.6l-.23-16.74h46.093v13.3h-31.187v58.246h25.454v13.759Z" transform="translate(-1089.087 -309.861)" fill="#ba0000"/>
      <path id="패스_1614" data-name="패스 1614" d="M1398.774,397l18.116,76.82H1401.3l-16.052-72.234h-9.632v55.495l.23,16.739h-15.135l.229-16.739V326.6l-.229-16.74h21.326c26.371,0,32.792,20.638,32.792,45.863v.459C1414.826,374.069,1410.24,389.663,1398.774,397Zm-23.161-8.485h6.421c13.3,0,17.428-13.759,17.428-32.1v-.688c0-18.116-3.44-32.563-19.033-32.563h-4.816Z" transform="translate(-1089.087 -309.861)" fill="#ba0000"/>
    </g>
    <g id="구성_요소_17_1" data-name="구성 요소 17 – 1" transform="translate(1465.287 315)">
      <path id="패스_1615" data-name="패스 1615" d="M1508.154,423.143v1.376c0,23.16-.688,52.054-27.059,52.054s-26.83-28.894-26.83-52.054V359.164c0-23.161.459-52.055,26.83-52.055,25.683,0,26.83,27.977,26.83,49.074v.688h-14.906v-.688c0-22.244-.917-35.085-11.924-35.085s-11.924,12.841-11.924,35.085V427.5c0,22.243.917,35.085,11.924,35.085s12.154-12.842,12.154-35.085v-4.357Z" transform="translate(-1454.265 -307.109)" fill="#ba0000"/>
      <path id="패스_1616" data-name="패스 1616" d="M1536.036,395.166v65.355h32.1v13.3h-47.009l.229-16.739V326.6l-.229-16.74h46.092v13.3h-31.187v58.246h25.454v13.759Z" transform="translate(-1454.265 -307.109)" fill="#ba0000"/>
      <path id="패스_1617" data-name="패스 1617" d="M1581.025,473.821l.229-16.739V326.6l-.229-16.74h15.134l-.229,16.74v133.92h28.894v13.3Z" transform="translate(-1454.265 -307.109)" fill="#ba0000"/>
      <path id="패스_1618" data-name="패스 1618" d="M1636.473,473.821l.229-16.739V326.6l-.229-16.74h15.135l-.23,16.74v133.92h28.894v13.3Z" transform="translate(-1454.265 -307.109)" fill="#ba0000"/>
    </g>
    <g id="구성_요소_13_1" data-name="구성 요소 13 – 1" transform="translate(181 317.752)">
      <path id="패스_1596" data-name="패스 1596" d="M169.979,309.861H184.2l9.86,103.651c.688,6.879.918,14.676,1.147,21.1h.688l1.376-21.1,9.86-103.651H219.97l9.86,103.651,1.376,21.1h.688c.23-6.42.688-14.217,1.376-21.1L242.9,309.861H256.89l-17.658,163.96H225.015l-10.09-100.21c-.229-3.211-1.147-17.887-1.147-21.1h-.688l-1.376,21.1-9.86,100.21H187.407Z" transform="translate(-169.979 -309.861)" fill="#212121"/>
      <path id="패스_1597" data-name="패스 1597" d="M323.208,309.861l-.229,16.74V457.082l.229,16.739H308.073l.23-16.739V395.166H283.995v61.916l.23,16.739H269.09l.229-16.739V326.6l-.229-16.74h15.135l-.23,16.74v54.806H308.3V326.6l-.23-16.74Z" transform="translate(-169.979 -309.861)" fill="#212121"/>
      <path id="패스_1598" data-name="패스 1598" d="M350.107,473.821H334.972l20.18-163.96h20.179l19.95,163.96h-14.9l-4.357-40.359H354.234Zm5.732-53.889h18.575l-6.879-65.355c-.918-7.567-1.606-18.8-2.065-23.848h-.687c-.459,5.045-1.147,16.281-2.064,23.848Z" transform="translate(-169.979 -309.861)" fill="#212121"/>
      <path id="패스_1599" data-name="패스 1599" d="M428.487,323.161V457.082l.229,16.739H413.581l.229-16.739V323.161H394.089v-13.3h54.119v13.3Z" transform="translate(-169.979 -309.861)" fill="#212121"/>
    </g>
    <g id="구성_요소_14_1" data-name="구성 요소 14 – 1" transform="translate(495.461 315)">
      <path id="패스_1600" data-name="패스 1600" d="M499.573,309.861l-.229,16.74V457.082l.229,16.739H484.439l.229-16.739V326.6l-.229-16.74Z" transform="translate(-484.439 -307.109)" fill="#212121"/>
      <path id="패스_1601" data-name="패스 1601" d="M526.174,429.563c.917,22.7,5.962,33.022,15.134,33.022,8.027,0,12.842-8.026,12.842-22.7,0-13.759-4.357-22.7-12.612-34.4L529.155,387.6c-11.237-16.052-15.364-28.894-15.364-43.341,0-23.848,11.465-37.149,27.059-37.149,16.74,0,25.683,15.823,27.288,41.048l-14.447,1.834c-.458-17.657-4.586-28.893-13.071-28.893-6.879,0-11.7,7.338-11.7,22.014,0,14.218,4.587,22.243,12.154,33.251l12.383,18.116c10.549,15.134,15.594,27.517,15.594,44.487,0,24.307-10.549,37.607-27.518,37.607-18.575,0-28.665-16.052-30.04-45.175Z" transform="translate(-484.439 -307.109)" fill="#212121"/>
    </g>
    <g id="구성_요소_18_1" data-name="구성 요소 18 – 1" transform="translate(1691.684 315)">
      <path id="패스_1619" data-name="패스 1619" d="M1697.173,425.436V413.282c0-21.556,5.274-37.149,10.319-49.99,3.44-8.715,6.88-17.658,6.88-27.289,0-10.778-2.981-16.052-8.944-16.052-6.65,0-10.09,6.421-13.071,17.887l-11.7-4.357c4.128-16.511,12.383-26.372,25.684-26.372,13.988,0,22.014,10.549,22.014,28.894,0,12.383-3.9,22.932-8.026,31.875-5.733,12.612-11.007,25.454-11.007,45.634v11.924Zm-.917,22.014h13.759v26.371h-13.759Z" transform="translate(-1680.662 -307.109)" fill="#212121"/>
    </g>
  </g>
</svg>
